<?xml version="1.0" standalone="no"?>
<!DOCTYPE svg PUBLIC "-//W3C//DTD SVG 20010904//EN"
 "http://www.w3.org/TR/2001/REC-SVG-20010904/DTD/svg10.dtd">
<svg version="1.0" xmlns="http://www.w3.org/2000/svg"
 width="700.000000pt" height="700.000000pt" viewBox="0 0 700.000000 700.000000"
 preserveAspectRatio="xMidYMid meet">
<metadata>
Created by potrace 1.11, written by Peter Selinger 2001-2013
</metadata>
<g transform="translate(0.000000,700.000000) scale(0.100000,-0.100000)"
fill="#000000" stroke="none">
<path d="M1678 6523 c-6 -82 0 -1683 6 -1768 13 -174 17 -213 25 -243 5 -18 8
-32 6 -32 -8 0 46 -125 79 -184 54 -97 96 -132 306 -257 107 -64 353 -209 545
-323 193 -115 362 -217 377 -227 15 -10 30 -19 33 -19 4 0 309 -179 375 -220
8 -5 40 -24 70 -41 30 -18 123 -73 205 -122 83 -50 164 -98 180 -107 17 -10
107 -62 200 -117 94 -56 188 -111 211 -124 44 -26 429 -254 454 -270 8 -5 66
-38 129 -74 l113 -66 127 78 c445 273 715 494 788 648 61 130 76 208 77 405 1
134 -3 195 -17 260 -44 205 -108 333 -223 448 -46 45 -88 82 -94 82 -6 0 -37
17 -68 38 -31 20 -74 46 -95 57 -20 11 -37 23 -37 27 0 5 -5 8 -10 8 -6 0 -36
16 -66 35 -30 19 -59 35 -64 35 -6 0 -10 3 -10 8 0 4 -9 12 -21 17 -11 6 -155
91 -319 190 -280 168 -383 229 -520 310 -30 18 -255 150 -499 294 -244 143
-447 261 -452 261 -5 0 -9 4 -9 9 0 5 -8 11 -17 15 -10 3 -25 10 -33 15 -73
46 -439 258 -540 314 -30 16 -62 35 -70 41 -8 6 -24 16 -35 22 -11 6 -177 102
-370 214 -192 111 -434 252 -537 311 -104 60 -190 109 -192 109 -2 0 -6 -26
-8 -57z"/>
<path d="M1672 3709 c3 -465 3 -475 26 -537 33 -91 63 -135 134 -191 51 -41
308 -194 611 -364 27 -15 95 -54 151 -86 55 -32 124 -71 151 -87 28 -15 124
-70 215 -122 91 -52 185 -106 210 -120 25 -14 124 -70 220 -125 96 -55 190
-109 209 -119 19 -11 112 -64 207 -119 l174 -99 62 38 c35 21 88 52 118 69 30
17 93 54 140 82 47 28 94 55 105 61 11 5 41 22 67 37 26 15 133 78 237 138
105 61 191 112 191 115 0 3 -28 21 -63 41 -56 32 -357 210 -607 358 -52 31
-107 63 -121 71 -15 8 -95 56 -178 105 -84 50 -166 98 -184 109 -49 28 -304
179 -477 281 -85 50 -231 137 -325 192 -93 55 -197 116 -230 136 -70 42 -241
142 -299 175 -23 13 -61 36 -86 52 -25 15 -124 74 -220 130 -96 57 -227 133
-290 171 -63 37 -123 71 -133 75 -17 6 -18 -16 -15 -467z"/>
<path d="M1676 1701 c1 -702 3 -1277 3 -1279 1 -5 97 47 158 85 29 18 54 33
57 33 2 0 77 43 167 95 89 52 163 95 165 95 2 0 26 14 54 31 27 17 67 40 88
52 74 41 207 118 222 127 14 9 272 158 350 203 19 10 229 131 465 267 237 136
443 254 459 262 l30 15 -40 24 c-22 13 -49 29 -59 36 -28 16 -504 295 -536
313 -60 35 -176 102 -204 119 -57 34 -966 563 -1050 611 -54 31 -159 92 -230
135 -38 23 -77 44 -86 47 -14 5 -15 -116 -13 -1271z"/>
</g>
</svg>
